<?xml version="1.0" standalone="no"?>
<!DOCTYPE svg PUBLIC "-//W3C//DTD SVG 20010904//EN"
 "http://www.w3.org/TR/2001/REC-SVG-20010904/DTD/svg10.dtd">
<svg version="1.0" xmlns="http://www.w3.org/2000/svg"
 width="4330.000000pt" height="3464.000000pt" viewBox="0 0 4330.000000 3464.000000"
 preserveAspectRatio="xMidYMid meet">

<g transform="translate(0.000000,3464.000000) scale(0.100000,-0.100000)"
fill="#000000" stroke="none">
<path d="M22750 27844 c-538 -158 -968 -323 -1392 -535 -1138 -570 -1995
-1425 -2412 -2406 -56 -132 -130 -344 -142 -409 -4 -24 -9 -32 -14 -23 -5 8
-65 201 -135 429 -69 228 -142 467 -162 530 l-36 115 -15 -35 c-17 -41 -405
-1084 -464 -1247 -26 -73 -44 -110 -52 -106 -6 4 -220 140 -476 303 -781 499
-815 520 -818 512 -1 -4 38 -206 86 -449 l89 -442 -111 -67 c-1632 -987 -2996
-2652 -3778 -4611 -70 -178 -238 -655 -238 -679 0 -3 25 15 56 40 269 220
1309 742 2594 1303 107 47 200 88 205 91 35 18 -27 -27 -135 -98 -748 -498
-1387 -1127 -1857 -1830 -545 -818 -888 -1766 -1012 -2800 -40 -331 -46 -439
-46 -875 0 -508 5 -613 51 -1000 38 -325 152 -906 183 -938 5 -5 29 30 54 76
122 225 344 587 516 837 472 692 959 1237 1421 1592 96 74 240 171 245 166 2
-1 -22 -37 -52 -78 -30 -41 -101 -145 -158 -230 -717 -1083 -919 -2058 -598
-2900 369 -969 1445 -1768 3088 -2293 336 -108 961 -267 1047 -267 15 0 -4 25
-81 106 -339 355 -646 793 -813 1159 -146 322 -195 646 -134 888 13 52 31 107
39 122 l14 28 69 -65 c517 -482 1184 -935 1794 -1219 690 -321 1305 -513 2520
-784 212 -48 536 -120 720 -161 1485 -333 2520 -667 3605 -1165 420 -192 1011
-501 1379 -719 35 -21 38 -22 28 -4 -16 29 -251 309 -398 474 -321 360 -842
883 -1208 1213 -1623 1463 -3360 2518 -5206 3164 -539 188 -838 329 -1155 544
-452 307 -722 669 -817 1099 -31 138 -31 421 0 570 67 323 238 669 480 970
531 661 1379 1213 2362 1538 384 128 803 221 1169 262 52 6 96 12 98 13 5 5
-538 156 -707 196 -694 166 -1682 312 -2965 440 -510 51 -1085 101 -1619 141
-148 11 -272 22 -274 25 -6 5 89 52 260 129 625 279 1401 464 2268 540 377 33
540 40 1000 40 423 0 607 -6 905 -31 l80 -6 -64 74 c-185 215 -449 474 -691
676 -383 320 -856 616 -1255 784 -52 22 -84 40 -75 43 42 15 398 78 562 100
356 48 535 60 943 59 395 0 585 -11 908 -54 475 -62 970 -182 1341 -323 l68
-26 -14 23 c-25 37 -664 1051 -672 1064 -4 8 -2 11 6 8 7 -2 164 -45 348 -95
184 -50 441 -120 570 -155 129 -35 453 -123 720 -195 267 -72 548 -148 625
-170 77 -21 149 -40 160 -42 18 -3 19 3 16 162 -2 145 -1 163 12 150 8 -8 250
-307 538 -665 287 -357 567 -705 621 -772 54 -68 97 -123 95 -123 -3 0 -218
187 -478 416 -261 229 -478 417 -484 419 -5 2 -172 52 -370 110 -429 127
-1375 410 -1563 466 -74 23 -136 39 -138 36 -3 -3 165 -193 372 -423 208 -231
496 -551 641 -711 224 -248 270 -294 301 -302 20 -5 447 -112 947 -237 715
-178 940 -238 1050 -279 77 -29 226 -85 330 -125 105 -40 289 -109 410 -155
121 -46 436 -165 700 -265 264 -100 577 -218 695 -262 200 -76 271 -108 210
-94 -14 3 -149 17 -300 31 -151 13 -468 43 -705 65 -236 22 -483 45 -548 51
-116 11 -165 8 -90 -5 38 -7 111 -22 438 -91 1093 -231 1932 -452 2039 -536
l26 -21 -30 -34 c-97 -111 -152 -324 -145 -564 6 -184 34 -311 111 -507 61
-155 69 -237 30 -317 -57 -116 -155 -172 -631 -361 -357 -142 -392 -154 -555
-195 -620 -155 -1454 -86 -2492 205 -217 62 -339 90 -508 117 -126 20 -180 23
-415 23 -234 0 -287 -3 -400 -23 -699 -121 -1162 -503 -1292 -1064 -84 -361
24 -661 349 -973 57 -55 147 -133 200 -173 524 -393 1351 -692 1917 -692 70 0
131 3 134 6 3 4 -67 47 -156 97 -705 391 -1177 767 -1315 1046 -34 69 -37 82
-37 162 0 82 2 89 31 126 66 82 191 123 381 123 177 0 318 -27 680 -134 436
-127 763 -201 1033 -232 175 -20 535 -15 698 10 291 44 682 157 957 275 573
248 1608 935 2410 1602 360 300 745 668 917 879 245 301 338 514 283 646 -75
181 -470 414 -1180 696 -733 291 -1923 667 -3158 997 -164 43 -300 81 -302 83
-17 19 -151 235 -218 353 -264 466 -471 975 -606 1490 -60 229 -69 255 -127
364 -70 133 -148 235 -284 372 -260 263 -609 498 -1095 739 -338 167 -722 323
-1095 447 -107 35 -195 65 -197 67 -2 2 193 446 607 1381 184 415 443 1002
827 1869 63 142 113 260 111 261 -2 2 -642 -317 -1423 -709 l-1419 -711 -59
-175 c-366 -1084 -468 -1384 -472 -1388 -2 -2 -2 11 0 29 3 19 14 108 25 199
125 1020 404 2346 741 3522 43 153 79 282 79 288 0 13 0 13 -100 -16z"/>
</g>
</svg>
